#Comment line ignore any data following # character 
#Hierarchical Translation and Rotation (.htr) file 
[Header]	
#Header keywords are followed by a single value 
FileType HTR		#Single word string
DataType HTRS		#Translation followed by rotation and scale data
FileVersion 1		#integer
NumSegments 84		#integer
NumFrames 2		#integer
DataFrameRate 30		#integer, data frame rate in this file
EulerRotationOrder ZYX
CalibrationUnits mm
RotationUnits Degrees
GlobalAxisofGravity Y
BoneLengthAxis Y
ScaleFactor 1.00
[SegmentNames&Hierarchy]
#CHILD	PARENT
MASTER GLOBAL
root MASTER
chest root
L_mid_tent01 root
R_mid_tent01 root
spine01 root
Bip01_Neck chest
L_humerus chest
R_humerus chest
weapon_bone chest
Bip01_Head Bip01_Neck
eye_left_bone Bip01_Head
eye_right_bone Bip01_Head
L_forearm L_humerus
L_front_hand L_forearm
L_weapon_bone L_forearm
L_front_hand01_01 L_front_hand
L_front_hand02_01 L_front_hand
L_front_hand03_01 L_front_hand
L_front_hand01_02 L_front_hand01_01
L_front_hand02_02 L_front_hand02_01
L_front_hand03_02 L_front_hand03_01
R_forearm R_humerus
R_front_hand R_forearm
R_weapon_bone R_forearm
R_front_hand01_01 R_front_hand
R_front_hand02_01 R_front_hand
R_front_hand03_01 R_front_hand
R_front_hand01_02 R_front_hand01_01
R_front_hand02_02 R_front_hand02_01
R_front_hand03_02 R_front_hand03_01
null_rope01_connect L_mid_tent01
Rope1_Seg01 null_rope01_connect
Rope1_Seg02 Rope1_Seg01
Rope1_Seg03 Rope1_Seg02
Rope1_Seg04 Rope1_Seg03
Rope1_Seg05 Rope1_Seg04
Rope1_Seg06 Rope1_Seg05
Rope1_Seg07 Rope1_Seg06
Rope1_Seg09 Rope1_Seg07
L_mid_hand01 Rope1_Seg09
L_mid_hand02 Rope1_Seg09
L_mid_hand03 Rope1_Seg09
null_rope02_connect R_mid_tent01
Rope2_Seg01 null_rope02_connect
Rope2_Seg02 Rope2_Seg01
Rope2_Seg03 Rope2_Seg02
Rope2_Seg04 Rope2_Seg03
Rope2_Seg05 Rope2_Seg04
Rope2_Seg06 Rope2_Seg05
Rope2_Seg07 Rope2_Seg06
Rope2_Seg09 Rope2_Seg07
R_mid_hand01 Rope2_Seg09
R_mid_hand02 Rope2_Seg09
R_mid_hand03 Rope2_Seg09
spine02 spine01
spine03 spine02
pelvis spine03
null_rope03_connect pelvis
null_rope04_connect pelvis
Rope3_Seg01 null_rope03_connect
Rope3_Seg02 Rope3_Seg01
Rope3_Seg03 Rope3_Seg02
Rope3_Seg04 Rope3_Seg03
Rope3_Seg05 Rope3_Seg04
Rope3_Seg06 Rope3_Seg05
Rope3_Seg07 Rope3_Seg06
Rope3_Seg08 Rope3_Seg07
Rope3_Seg09 Rope3_Seg08
R_rear_hand01 Rope3_Seg09
R_rear_hand02 Rope3_Seg09
R_rear_hand03 Rope3_Seg09
Rope4_Seg01 null_rope04_connect
Rope4_Seg02 Rope4_Seg01
Rope4_Seg03 Rope4_Seg02
Rope4_Seg04 Rope4_Seg03
Rope4_Seg05 Rope4_Seg04
Rope4_Seg06 Rope4_Seg05
Rope4_Seg07 Rope4_Seg06
Rope4_Seg08 Rope4_Seg07
Rope4_Seg09 Rope4_Seg08
L_rear_hand01 Rope4_Seg09
L_rear_hand02 Rope4_Seg09
L_rear_hand03 Rope4_Seg09
[BasePosition]
#SegmentName Tx, Ty, Tz, Rx, Ry, Rz, BoneLength
MASTER 0.000000 0.000000 0.000000 -90.000000 0.000000 0.000000 10.000000 
root 0.000000 0.000000 0.000000 0.000000 0.000000 0.000000 10.000000 
chest 0.000000 0.000000 0.000000 0.000000 0.000000 0.000000 10.000000 
L_mid_tent01 0.000000 0.000000 0.000000 0.000000 0.000000 0.000000 10.000000 
R_mid_tent01 0.000000 0.000000 0.000000 0.000000 0.000000 0.000000 10.000000 
spine01 0.000000 0.000000 0.000000 0.000000 0.000000 0.000000 10.000000 
Bip01_Neck 0.000000 0.000000 0.000000 0.000000 0.000000 0.000000 10.000000 
L_humerus 0.000000 0.000000 0.000000 0.000000 0.000000 0.000000 10.000000 
R_humerus 0.000000 0.000000 0.000000 0.000000 0.000000 0.000000 10.000000 
weapon_bone 0.000000 0.000000 0.000000 0.000000 0.000000 0.000000 10.000000 
Bip01_Head 0.000000 0.000000 0.000000 0.000000 0.000000 0.000000 10.000000 
eye_left_bone 0.000000 0.000000 0.000000 0.000000 0.000000 0.000000 10.000000 
eye_right_bone 0.000000 0.000000 0.000000 0.000000 0.000000 0.000000 10.000000 
L_forearm 0.000000 0.000000 0.000000 0.000000 0.000000 0.000000 10.000000 
L_front_hand 0.000000 0.000000 0.000000 0.000000 0.000000 0.000000 10.000000 
L_weapon_bone 0.000000 0.000000 0.000000 0.000000 0.000000 0.000000 10.000000 
L_front_hand01_01 0.000000 0.000000 0.000000 0.000000 0.000000 0.000000 10.000000 
L_front_hand02_01 0.000000 0.000000 0.000000 0.000000 0.000000 0.000000 10.000000 
L_front_hand03_01 0.000000 0.000000 0.000000 0.000000 0.000000 0.000000 10.000000 
L_front_hand01_02 0.000000 0.000000 0.000000 0.000000 0.000000 0.000000 10.000000 
L_front_hand02_02 0.000000 0.000000 0.000000 0.000000 0.000000 0.000000 10.000000 
L_front_hand03_02 0.000000 0.000000 0.000000 0.000000 0.000000 0.000000 10.000000 
R_forearm 0.000000 0.000000 0.000000 0.000000 0.000000 0.000000 10.000000 
R_front_hand 0.000000 0.000000 0.000000 0.000000 0.000000 0.000000 10.000000 
R_weapon_bone 0.000000 0.000000 0.000000 0.000000 0.000000 0.000000 10.000000 
R_front_hand01_01 0.000000 0.000000 0.000000 0.000000 0.000000 0.000000 10.000000 
R_front_hand02_01 0.000000 0.000000 0.000000 0.000000 0.000000 0.000000 10.000000 
R_front_hand03_01 0.000000 0.000000 0.000000 0.000000 0.000000 0.000000 10.000000 
R_front_hand01_02 0.000000 0.000000 0.000000 0.000000 0.000000 0.000000 10.000000 
R_front_hand02_02 0.000000 0.000000 0.000000 0.000000 0.000000 0.000000 10.000000 
R_front_hand03_02 0.000000 0.000000 0.000000 0.000000 0.000000 0.000000 10.000000 
null_rope01_connect 0.000000 0.000000 0.000000 0.000000 0.000000 0.000000 10.000000 
Rope1_Seg01 0.000000 0.000000 0.000000 0.000000 0.000000 0.000000 10.000000 
Rope1_Seg02 0.000000 0.000000 0.000000 0.000000 0.000000 0.000000 10.000000 
Rope1_Seg03 0.000000 0.000000 0.000000 0.000000 0.000000 0.000000 10.000000 
Rope1_Seg04 0.000000 0.000000 0.000000 0.000000 0.000000 0.000000 10.000000 
Rope1_Seg05 0.000000 0.000000 0.000000 0.000000 0.000000 0.000000 10.000000 
Rope1_Seg06 0.000000 0.000000 0.000000 0.000000 0.000000 0.000000 10.000000 
Rope1_Seg07 0.000000 0.000000 0.000000 0.000000 0.000000 0.000000 10.000000 
Rope1_Seg09 0.000000 0.000000 0.000000 0.000000 0.000000 0.000000 10.000000 
L_mid_hand01 0.000000 0.000000 0.000000 0.000000 0.000000 0.000000 10.000000 
L_mid_hand02 0.000000 0.000000 0.000000 0.000000 0.000000 0.000000 10.000000 
L_mid_hand03 0.000000 0.000000 0.000000 0.000000 0.000000 0.000000 10.000000 
null_rope02_connect 0.000000 0.000000 0.000000 0.000000 0.000000 0.000000 10.000000 
Rope2_Seg01 0.000000 0.000000 0.000000 0.000000 0.000000 0.000000 10.000000 
Rope2_Seg02 0.000000 0.000000 0.000000 0.000000 0.000000 0.000000 10.000000 
Rope2_Seg03 0.000000 0.000000 0.000000 0.000000 0.000000 0.000000 10.000000 
Rope2_Seg04 0.000000 0.000000 0.000000 0.000000 0.000000 0.000000 10.000000 
Rope2_Seg05 0.000000 0.000000 0.000000 0.000000 0.000000 0.000000 10.000000 
Rope2_Seg06 0.000000 0.000000 0.000000 0.000000 0.000000 0.000000 10.000000 
Rope2_Seg07 0.000000 0.000000 0.000000 0.000000 0.000000 0.000000 10.000000 
Rope2_Seg09 0.000000 0.000000 0.000000 0.000000 0.000000 0.000000 10.000000 
R_mid_hand01 0.000000 0.000000 0.000000 0.000000 0.000000 0.000000 10.000000 
R_mid_hand02 0.000000 0.000000 0.000000 0.000000 0.000000 0.000000 10.000000 
R_mid_hand03 0.000000 0.000000 0.000000 0.000000 0.000000 0.000000 10.000000 
spine02 0.000000 0.000000 0.000000 0.000000 0.000000 0.000000 10.000000 
spine03 0.000000 0.000000 0.000000 0.000000 0.000000 0.000000 10.000000 
pelvis 0.000000 0.000000 0.000000 0.000000 0.000000 0.000000 10.000000 
null_rope03_connect 0.000000 0.000000 0.000000 0.000000 0.000000 0.000000 10.000000 
null_rope04_connect 0.000000 0.000000 0.000000 0.000000 0.000000 0.000000 10.000000 
Rope3_Seg01 0.000000 0.000000 0.000000 0.000000 0.000000 0.000000 10.000000 
Rope3_Seg02 0.000000 0.000000 0.000000 0.000000 0.000000 0.000000 10.000000 
Rope3_Seg03 0.000000 0.000000 0.000000 0.000000 0.000000 0.000000 10.000000 
Rope3_Seg04 0.000000 0.000000 0.000000 0.000000 0.000000 0.000000 10.000000 
Rope3_Seg05 0.000000 0.000000 0.000000 0.000000 0.000000 0.000000 10.000000 
Rope3_Seg06 0.000000 0.000000 0.000000 0.000000 0.000000 0.000000 10.000000 
Rope3_Seg07 0.000000 0.000000 0.000000 0.000000 0.000000 0.000000 10.000000 
Rope3_Seg08 0.000000 0.000000 0.000000 0.000000 0.000000 0.000000 10.000000 
Rope3_Seg09 0.000000 0.000000 0.000000 0.000000 0.000000 0.000000 10.000000 
R_rear_hand01 0.000000 0.000000 0.000000 0.000000 0.000000 0.000000 10.000000 
R_rear_hand02 0.000000 0.000000 0.000000 0.000000 0.000000 0.000000 10.000000 
R_rear_hand03 0.000000 0.000000 0.000000 0.000000 0.000000 0.000000 10.000000 
Rope4_Seg01 0.000000 0.000000 0.000000 0.000000 0.000000 0.000000 10.000000 
Rope4_Seg02 0.000000 0.000000 0.000000 0.000000 0.000000 0.000000 10.000000 
Rope4_Seg03 0.000000 0.000000 0.000000 0.000000 0.000000 0.000000 10.000000 
Rope4_Seg04 0.000000 0.000000 0.000000 0.000000 0.000000 0.000000 10.000000 
Rope4_Seg05 0.000000 0.000000 0.000000 0.000000 0.000000 0.000000 10.000000 
Rope4_Seg06 0.000000 0.000000 0.000000 0.000000 0.000000 0.000000 10.000000 
Rope4_Seg07 0.000000 0.000000 0.000000 0.000000 0.000000 0.000000 10.000000 
Rope4_Seg08 0.000000 0.000000 0.000000 0.000000 0.000000 0.000000 10.000000 
Rope4_Seg09 0.000000 0.000000 0.000000 0.000000 0.000000 0.000000 10.000000 
L_rear_hand01 0.000000 0.000000 0.000000 0.000000 0.000000 0.000000 10.000000 
L_rear_hand02 0.000000 0.000000 0.000000 0.000000 0.000000 0.000000 10.000000 
L_rear_hand03 0.000000 0.000000 0.000000 0.000000 0.000000 0.000000 10.000000 
#Beginning of Data. Separated by tabs
#Fr	Tx	Ty	Tz	Rx	Ry	Rz	SF
[MASTER]
3 -0.000201 1327.243896 456.735870 0.001660 0.001660 0.001660 1403.632446
4 -0.000284 1875.046875 620.982544 0.001660 0.001660 0.001660 1975.201294
[root]
3 -17.320431 2.701416 1450.397949 -90.977554 -13.161418 -90.049049 1450.503906
4 -18.264757 -0.941017 1452.796387 -90.139847 -14.907063 -90.693779 1452.911499
[chest]
3 -84.512650 -34.090519 0.000000 -2.073498 0.422011 177.987259 91.129311
4 -84.512650 -34.090519 0.000000 -1.943092 0.758726 -174.586166 91.129311
[L_mid_tent01]
3 27.299150 22.179129 -249.918701 -6.970486 12.106105 38.890697 252.381683
4 27.299166 22.179140 -249.918701 -0.489672 9.918570 51.606430 252.381699
[R_mid_tent01]
3 23.228794 24.509907 226.238495 174.520813 -14.738642 45.448193 228.744751
4 23.228794 24.509907 226.238495 167.591019 -10.976892 52.494720 228.744751
[spine01]
3 -0.361383 -0.195265 0.000000 0.001983 0.001257 25.265663 0.410763
4 -0.361383 -0.195265 0.000000 0.002002 0.001225 27.063108 0.410763
[Bip01_Neck]
3 165.484543 71.581718 0.000119 176.643677 -1.657967 43.431911 180.302734
4 165.484543 71.581718 0.000119 176.643677 -1.657967 43.431911 180.302734
[L_humerus]
3 -13.983130 -135.272980 -120.471481 -6.059233 67.264008 83.923363 181.680161
4 -13.983130 -135.272980 -120.471481 -6.284952 66.585564 83.674629 181.680161
[R_humerus]
3 -13.983309 -135.273102 125.287651 27.046503 -68.213219 68.627136 184.909012
4 -13.983309 -135.273102 125.287651 26.741209 -67.503693 68.942406 184.909012
[weapon_bone]
3 235.964890 -300.705902 0.000000 0.000000 -89.951546 -128.212341 382.234833
4 235.964890 -300.705902 0.000000 0.000000 -89.951546 -128.212341 382.234833
[Bip01_Head]
3 213.439804 185.728241 11.612870 4.965622 3.295105 -43.893162 283.171997
4 213.437622 185.734619 11.530849 4.968140 4.047607 -43.875534 283.171204
[eye_left_bone]
3 -24.626970 125.451866 -64.772606 0.000000 -90.000000 -99.840431 143.318359
4 -24.626970 125.451866 -64.772606 0.000000 -90.000000 -99.840431 143.318359
[eye_right_bone]
3 -24.626970 125.451866 64.327362 0.000000 -89.965736 80.156380 143.117676
4 -24.626970 125.451866 64.327362 0.000000 -89.972023 80.156380 143.117676
[L_forearm]
3 322.776093 0.000000 -0.000119 0.000407 -0.002312 -109.964386 322.776093
4 322.776093 0.000000 -0.000119 0.000411 -0.002311 -110.193703 322.776093
[L_front_hand]
3 241.149185 -0.042021 -3.300071 -178.667953 -1.835447 -27.422350 241.171753
4 241.149185 -0.042021 -3.300071 -178.667953 -1.835447 -27.422350 241.171753
[L_weapon_bone]
3 156.183838 0.000000 0.000000 0.000014 0.000007 0.000001 156.183838
4 156.183838 0.000000 0.000000 0.000014 0.000007 0.000001 156.183838
[L_front_hand01_01]
3 86.095154 20.947098 -0.655860 -0.366594 -0.477154 75.385574 88.609184
4 86.095154 20.947098 -0.655860 -0.365371 -0.478091 75.092094 88.609184
[L_front_hand02_01]
3 86.935165 -11.437475 24.513514 154.399796 -59.883835 -61.369587 91.046425
4 86.935165 -11.437475 24.513514 153.946487 -59.758568 -60.843468 91.046425
[L_front_hand03_01]
3 86.637497 -14.123976 -20.424902 -153.913849 58.118122 -62.702866 90.126129
4 86.637497 -14.123976 -20.424902 -153.504349 57.989803 -62.217342 90.126129
[L_front_hand01_02]
3 71.020905 -0.000179 0.000030 0.000320 -0.002325 -105.686226 71.020905
4 71.020905 -0.000179 0.000030 0.000320 -0.002325 -105.648979 71.020905
[L_front_hand02_02]
3 71.020927 -0.000119 0.000060 0.000320 -0.002325 -105.686226 71.020927
4 71.020927 -0.000119 0.000060 0.000320 -0.002325 -105.648979 71.020927
[L_front_hand03_02]
3 71.020905 -0.000060 0.000060 0.000320 -0.002325 -105.686226 71.020905
4 71.020905 -0.000060 0.000060 0.000320 -0.002325 -105.648979 71.020905
[R_forearm]
3 322.776428 -0.000060 0.000030 0.201788 0.066125 -108.611824 322.776428
4 322.776428 -0.000060 0.000030 0.201651 0.066543 -108.849144 322.776428
[R_front_hand]
3 238.847015 -0.006795 2.210259 -2.635298 -10.645461 -26.312506 238.857239
4 238.847015 -0.006795 2.210259 -2.635298 -10.645460 -26.312500 238.857239
[R_weapon_bone]
3 155.664093 0.002503 -0.000030 0.003487 0.001180 -90.988930 155.664078
4 155.664093 0.002503 -0.000030 0.003487 0.001180 -90.988914 155.664078
[R_front_hand01_01]
3 87.624611 14.231146 22.918642 -154.633499 -59.950619 61.746044 91.683487
4 87.624611 14.231146 22.918642 -154.238968 -59.839840 61.284889 91.683487
[R_front_hand02_01]
3 89.356956 14.367283 -19.491137 154.602661 58.302849 63.744389 92.579636
4 89.356956 14.367283 -19.491137 154.231567 58.196690 63.311184 92.579636
[R_front_hand03_01]
3 87.286232 -22.307278 -0.143439 0.162155 -0.423168 -75.767921 90.091743
4 87.286232 -22.307278 -0.143439 0.161230 -0.423521 -75.517479 90.091743
[R_front_hand01_02]
3 71.020905 0.000060 0.000119 0.002323 -0.000334 106.381714 71.020905
4 71.020905 0.000060 0.000119 0.002323 -0.000334 106.381721 71.020905
[R_front_hand02_02]
3 71.020844 -0.000030 -0.000119 0.002323 -0.000334 106.381714 71.020836
4 71.020844 -0.000030 -0.000119 0.002323 -0.000334 106.381721 71.020836
[R_front_hand03_02]
3 71.020905 0.000000 0.000030 0.002323 -0.000334 106.381714 71.020905
4 71.020905 0.000000 0.000030 0.002323 -0.000334 106.381721 71.020905
[null_rope01_connect]
3 328.732483 0.000000 -0.000238 -147.109879 -75.114296 -149.323792 328.732483
4 328.732483 0.000000 -0.000238 -127.595284 -79.415291 -179.177170 328.732483
[Rope1_Seg01]
3 -0.000036 -0.000073 0.000145 -5.698830 1.377977 -83.299179 0.000166
4 -0.000035 -0.000071 0.000142 -16.739252 8.489842 -70.730309 0.000162
[Rope1_Seg02]
3 139.999863 -0.000179 0.000000 -0.708061 5.662631 -5.923670 139.999863
4 139.999863 -0.000179 0.000000 -2.349800 5.628349 -2.991680 139.999863
[Rope1_Seg03]
3 139.999924 0.000060 -0.000060 -1.380589 7.718953 -8.173590 139.999924
4 139.999924 0.000060 -0.000060 -4.848864 7.637303 -3.189991 139.999924
[Rope1_Seg04]
3 139.999924 -0.000060 -0.000119 -1.922658 5.020561 -4.896554 139.999924
4 139.999924 -0.000060 -0.000119 -11.457103 10.992387 -3.496330 139.999924
[Rope1_Seg05]
3 139.999832 0.000119 -0.000060 0.011430 -3.869690 4.253017 139.999832
4 139.999832 0.000119 -0.000060 3.433719 1.818486 -4.279778 139.999832
[Rope1_Seg06]
3 139.999954 0.000119 -0.000060 -0.059524 -1.293477 1.476278 139.999954
4 139.999954 0.000119 -0.000060 3.684268 -0.100646 -2.050263 139.999954
[Rope1_Seg07]
3 139.999985 0.000060 0.000000 -0.065657 -0.537061 0.644917 139.999985
4 139.999985 0.000060 0.000000 1.045747 0.466717 -1.097045 139.999985
[Rope1_Seg09]
3 121.602913 0.000119 -0.000089 -89.793175 -1.359789 0.847147 121.602913
4 121.602913 0.000119 -0.000089 -89.793175 -1.359789 0.847147 121.602913
[L_mid_hand01]
3 103.859421 1.038730 8.195221 124.165955 -63.799015 -31.873352 104.187431
4 103.859421 1.038730 8.195221 119.391953 -59.659550 -26.459229 104.187431
[L_mid_hand02]
3 105.572853 -4.139662 -10.864139 -164.626358 42.318848 -67.191460 106.211075
4 105.572853 -4.139662 -10.864139 -160.502609 40.861904 -60.979630 106.211075
[L_mid_hand03]
3 104.641464 17.579376 -3.913581 -7.501869 17.251593 69.949562 106.179977
4 104.641464 17.579376 -3.913581 -8.971709 16.553080 64.913109 106.179977
[null_rope02_connect]
3 328.732849 0.000179 -0.000119 -98.440666 74.733482 23.263853 328.732849
4 328.732849 0.000179 -0.000119 -77.461105 74.175232 48.970772 328.732849
[Rope2_Seg01]
3 0.000040 0.000145 0.000000 101.186531 15.100804 -103.368309 0.000151
4 0.000041 0.000142 0.000000 100.606117 23.754356 -122.003220 0.000147
[Rope2_Seg02]
3 139.999741 -0.000060 -0.000119 -10.213878 19.654835 3.858394 139.999756
4 139.999741 -0.000060 -0.000119 -2.622808 13.211757 0.942905 139.999756
[Rope2_Seg03]
3 140.000107 0.000030 0.000000 -34.089035 26.288088 11.518683 140.000107
4 140.000107 0.000030 0.000000 -15.577363 29.696003 4.557689 140.000107
[Rope2_Seg04]
3 139.999802 0.000000 -0.000060 -0.131976 0.278568 -0.043174 139.999802
4 139.999802 0.000000 -0.000060 -50.723167 31.679398 16.390457 139.999802
[Rope2_Seg05]
3 139.999985 -0.000060 0.000119 32.975784 -10.546843 -18.886978 139.999985
4 139.999985 -0.000060 0.000119 48.929993 -0.609924 -26.046513 139.999985
[Rope2_Seg06]
3 139.999893 -0.000030 -0.000119 7.571843 -7.105046 -3.975642 139.999893
4 139.999893 -0.000030 -0.000119 20.106998 -12.370171 -10.258097 139.999893
[Rope2_Seg07]
3 139.999893 0.000060 -0.000060 3.086494 -3.978733 -1.600657 139.999893
4 139.999893 0.000060 -0.000060 4.355826 -5.050576 -2.043432 139.999893
[Rope2_Seg09]
3 121.338966 0.000089 -0.000060 33.793236 -1.359788 -0.847141 121.338966
4 121.338966 0.000089 -0.000060 33.793236 -1.359788 -0.847141 121.338966
[R_mid_hand01]
3 104.680779 11.144459 -10.335981 -18.237753 44.607113 67.592667 105.778534
4 104.680779 11.144459 -10.335981 -20.399712 43.830379 64.493820 105.778534
[R_mid_hand02]
3 104.070427 2.443552 8.231699 52.237907 -66.108360 35.844143 104.424065
4 104.070427 2.443552 8.231699 55.242668 -64.206009 32.532043 104.424065
[R_mid_hand03]
3 106.028137 -11.221827 -5.996406 -176.510086 15.433296 -74.380737 106.788818
4 106.028137 -11.221827 -5.996406 -175.861618 15.275426 -71.940247 106.788818
[spine02]
3 129.756927 0.001550 0.000119 0.412485 -4.039276 -13.704086 129.756927
4 129.756927 0.001550 0.000119 0.438851 -4.036261 -14.034025 129.756927
[spine03]
3 78.614082 0.081489 -4.899014 1.929331 3.818316 16.954147 78.766624
4 78.614090 0.081493 -4.899014 1.943640 3.811042 17.174652 78.766632
[pelvis]
3 169.435242 0.051022 0.000000 -0.062031 -0.179692 15.085137 169.435257
4 169.435242 0.051022 0.000000 -0.062688 -0.179464 15.504308 169.435257
[null_rope03_connect]
3 -1.257226 -2.466202 137.391083 0.000000 -89.665451 59.557072 137.418976
4 -1.257226 -2.466202 137.391083 -32.217598 -88.730202 91.435547 137.418976
[null_rope04_connect]
3 -1.259640 -2.480268 -137.844437 0.000000 -89.665451 59.557072 137.872513
4 -1.259640 -2.480268 -137.844437 -32.217598 -88.730202 91.435547 137.872513
[Rope3_Seg01]
3 -0.000038 0.000000 -0.000007 -138.903442 27.375210 -93.349449 0.000038
4 -0.000037 0.000000 -0.000011 -143.185715 33.370411 -97.100998 0.000039
[Rope3_Seg02]
3 139.999924 -0.000119 0.000060 0.084607 -2.935239 -4.008647 139.999924
4 139.999924 -0.000119 0.000060 0.425732 -1.952357 -4.260506 139.999924
[Rope3_Seg03]
3 139.999924 -0.000119 0.000119 0.210400 -2.999521 -4.754698 139.999924
4 139.999924 -0.000119 0.000119 0.387697 -1.844767 -4.299021 139.999924
[Rope3_Seg04]
3 139.999924 0.000119 0.000000 0.209678 -3.241655 -5.770741 139.999924
4 139.999924 0.000119 0.000000 0.340159 -1.864781 -4.976530 139.999924
[Rope3_Seg05]
3 139.999924 -0.000238 0.000060 -0.077863 -0.520535 3.345806 139.999924
4 139.999924 -0.000238 0.000060 0.006883 -1.264446 -0.473238 139.999924
[Rope3_Seg06]
3 139.999893 -0.000119 -0.000060 0.073238 0.587455 5.266168 139.999893
4 139.999893 -0.000119 -0.000060 0.146064 -0.554684 1.845787 139.999893
[Rope3_Seg07]
3 139.999771 0.000060 -0.000119 0.257865 -0.057307 2.024430 139.999771
4 139.999771 0.000060 -0.000119 0.380628 -0.494345 0.430296 139.999771
[Rope3_Seg08]
3 139.999985 -0.000060 0.000000 0.357363 -0.036949 1.277566 139.999985
4 139.999985 -0.000060 0.000000 0.460973 -0.330601 0.222885 139.999985
[Rope3_Seg09]
3 90.185997 -0.000179 -0.000060 89.793228 -1.359877 -0.847183 90.185997
4 90.185997 -0.000179 -0.000060 89.793228 -1.359877 -0.847183 90.185997
[R_rear_hand01]
3 103.366196 -6.073594 -10.757982 -176.465668 24.425859 -70.909309 104.101845
4 103.366196 -6.073594 -10.757982 -175.114853 24.208797 -67.632149 104.101845
[R_rear_hand02]
3 100.509819 12.039542 -7.992327 -14.843726 36.213379 68.859123 101.543350
4 100.509819 12.039542 -7.992327 -16.923939 35.395069 65.303368 101.543350
[R_rear_hand03]
3 101.539970 5.215704 5.435467 73.787918 -69.202950 19.069901 101.819031
4 101.539970 5.215704 5.435467 75.730560 -66.314209 16.974052 101.819031
[Rope4_Seg01]
3 0.000010 0.000038 -0.000114 53.745411 33.954880 -97.340927 0.000121
4 0.000010 0.000038 -0.000114 61.875069 34.591923 -82.608566 0.000121
[Rope4_Seg02]
3 139.999985 0.000060 0.000119 -0.169588 -0.417483 0.848006 139.999985
4 139.999985 0.000060 0.000119 0.364867 -3.221964 -2.180762 139.999985
[Rope4_Seg03]
3 139.999924 0.000000 -0.000238 -0.195315 -0.476418 0.981738 139.999924
4 139.999924 0.000000 -0.000238 0.338683 -3.148235 -2.179765 139.999924
[Rope4_Seg04]
3 139.999985 0.000000 0.000119 -0.622115 -0.397816 2.966676 139.999985
4 139.999985 0.000000 0.000119 0.611120 -3.473783 -3.446375 139.999985
[Rope4_Seg05]
3 139.999802 -0.000060 -0.000119 0.104325 -0.878242 -0.488778 139.999802
4 139.999802 -0.000060 -0.000119 0.008381 -2.604946 -0.730689 139.999802
[Rope4_Seg06]
3 139.999924 0.000000 0.000060 0.841866 -0.784299 -4.169499 139.999924
4 139.999924 0.000000 0.000060 -0.358599 -0.930944 2.329296 139.999924
[Rope4_Seg07]
3 139.999802 0.000000 0.000000 0.394538 -0.447168 -1.810103 139.999802
4 139.999802 0.000000 0.000000 -0.166036 -0.743103 1.451901 139.999802
[Rope4_Seg08]
3 139.999924 0.000000 0.000119 -1.331541 -0.271354 -0.934947 139.999924
4 139.999924 0.000000 0.000119 -1.599313 -0.617677 0.633517 139.999924
[Rope4_Seg09]
3 90.185791 0.000060 0.000060 -135.617828 2.228885 0.850567 90.185791
4 90.185791 0.000060 0.000060 -135.617828 2.228885 0.850567 90.185791
[L_rear_hand01]
3 101.696655 -8.392275 -7.654577 -18.919888 -34.466518 118.185951 102.329041
4 101.696655 -8.392275 -7.654577 -23.837845 -31.499460 127.199913 102.329041
[L_rear_hand02]
3 102.726799 -1.568258 5.773216 77.226944 63.386848 164.679077 102.900848
4 102.726799 -1.568258 5.773216 79.944244 55.427822 167.828537 102.900848
[L_rear_hand03]
3 104.552910 9.721220 -10.420293 -173.780411 -23.916803 -115.646591 105.519653
4 104.552910 9.721220 -10.420293 -170.300720 -22.790039 -124.406273 105.519653
